<svg width="49" height="50" viewBox="0 0 49 50" fill="none" xmlns="http://www.w3.org/2000/svg">
<path d="M7.64701 39.3931C7.50011 39.7659 7.1435 39.9927 6.76557 39.9927C6.64947 39.9927 6.53099 39.9713 6.41607 39.925C2.78959 38.4849 0.589539 36.634 0.0516683 34.5742C-0.0810222 34.0673 0.22227 33.5473 0.729338 33.4155C1.2364 33.2837 1.75413 33.5865 1.88564 34.0946C2.25883 35.524 4.1165 36.9688 7.11625 38.1608C7.60199 38.3531 7.84013 38.9052 7.64701 39.3931ZM10.8683 29.4502C11.0472 29.6022 11.2652 29.677 11.482 29.677C11.7498 29.677 12.0163 29.563 12.2035 29.3434C12.5435 28.9445 12.495 28.345 12.0969 28.0042C11.6265 27.6029 11.1669 27.1779 10.7297 26.7398C6.56416 22.5656 4.38306 17.26 5.04415 13.0312C6.82125 12.7522 8.78791 12.9777 10.7806 13.6449C10.8648 13.6889 10.9572 13.7209 11.0531 13.7387C13.7058 14.679 16.3927 16.3921 18.7243 18.7286C19.3107 19.3162 19.8699 19.9407 20.3853 20.5818C20.7135 20.9902 21.3106 21.0543 21.7181 20.7255C22.1257 20.3966 22.1897 19.7982 21.8615 19.3898C21.3035 18.6953 20.6993 18.021 20.0642 17.3846C17.6687 14.9841 14.9059 13.1855 12.1277 12.1241C12.0602 10.4062 12.3504 8.83794 12.9653 7.60205C14.5303 7.94278 16.1499 8.8973 17.6059 10.3421C17.4033 11.153 17.241 11.9912 17.1237 12.8507C17.0526 13.3707 17.4152 13.8491 17.9341 13.9204C18.453 13.9916 18.9304 13.6283 19.0015 13.1083C19.6389 8.45447 21.6553 4.54737 24.4442 2.50656C27.2331 4.54737 29.2495 8.45328 29.8869 13.1059C29.958 13.6259 30.4354 13.9892 30.9543 13.918C31.4732 13.8468 31.8358 13.3671 31.7647 12.8483C31.6474 11.9888 31.4851 11.1518 31.2825 10.3421C32.7385 8.8973 34.3593 7.94278 35.9231 7.60205C36.5368 8.83794 36.8283 10.4062 36.7607 12.1241C33.9825 13.1867 31.2197 14.9853 28.8242 17.3846C28.1892 18.021 27.5849 18.6953 27.0269 19.3898C26.6988 19.7982 26.7627 20.3966 27.1703 20.7255C27.5778 21.0543 28.1749 20.9902 28.5031 20.5818C29.0185 19.9407 29.5777 19.3174 30.1641 18.7286C32.4957 16.3921 35.1815 14.6778 37.8341 13.7387C37.9312 13.7209 38.0237 13.6889 38.1078 13.6449C40.1005 12.9789 42.0672 12.7522 43.8443 13.0312C44.5053 17.2612 42.3242 22.5668 38.1587 26.7398C37.7215 27.1779 37.2619 27.6029 36.7915 28.0042C36.3935 28.3438 36.3449 28.9433 36.6837 29.3434C37.0226 29.7423 37.6208 29.791 38.0201 29.4514C38.5284 29.0181 39.0259 28.5575 39.4987 28.0838C44.3134 23.2601 46.6983 16.9501 45.5775 12.0102C45.497 11.654 45.2197 11.3762 44.8631 11.2943C42.9474 10.8574 40.8256 10.9512 38.6634 11.5127C38.6433 9.42086 38.1457 7.51657 37.224 6.05037C37.0297 5.7417 36.6754 5.57193 36.3129 5.61348C34.409 5.8343 32.44 6.78407 30.67 8.3215C29.4462 4.89403 27.4404 2.12902 24.9477 0.557159C24.6397 0.362457 24.2464 0.362457 23.9383 0.557159C21.4456 2.12902 19.4399 4.89403 18.216 8.3215C16.4461 6.78407 14.4794 5.8343 12.5731 5.61348C12.2106 5.57193 11.8576 5.7417 11.6633 6.05037C10.7427 7.51657 10.2463 9.42086 10.2262 11.5127C8.06523 10.9512 5.94218 10.8574 4.02646 11.2943C3.67104 11.375 3.39381 11.654 3.31206 12.0102C2.19012 16.9501 4.57618 23.259 9.39094 28.0838C9.86247 28.5563 10.3601 29.0157 10.8683 29.4502ZM10.4193 36.8774C10.5923 36.3824 10.3316 35.841 9.83759 35.6677C6.97764 34.6656 5.27043 33.3989 5.27043 32.2805C5.27043 31.5575 6.01445 30.7407 7.36505 29.9797C7.82117 29.7233 7.98348 29.1439 7.72639 28.6869C7.47049 28.2298 6.89234 28.0671 6.43621 28.3248C4.40439 29.4692 3.37485 30.8001 3.37485 32.2817C3.37485 34.3332 5.39364 36.1235 9.21205 37.4627C9.31512 37.4995 9.42056 37.5161 9.52482 37.5161C9.91697 37.5149 10.2831 37.2692 10.4193 36.8774ZM38.8636 35.7341C38.3684 35.9027 38.103 36.4417 38.2713 36.9392C38.4051 37.3345 38.7736 37.5838 39.1681 37.5838C39.2688 37.5838 39.3719 37.5672 39.4726 37.5328C43.4261 36.1876 45.5171 34.3712 45.5171 32.2805C45.5171 30.8523 44.5575 29.5618 42.6655 28.4447C42.2141 28.1787 41.6335 28.3283 41.3682 28.7807C41.1028 29.233 41.2521 29.8147 41.7034 30.0807C42.9403 30.8108 43.6215 31.592 43.6215 32.2794C43.6203 33.412 41.7982 34.7357 38.8636 35.7341ZM33.8451 42.6757C33.8451 43.6374 33.0643 44.4209 32.1035 44.4209C31.5799 44.4209 31.1557 44.846 31.1557 45.3707C31.1557 45.8955 31.5799 46.3205 32.1035 46.3205C34.1093 46.3205 35.7407 44.6857 35.7407 42.6757C35.7407 42.151 35.3165 41.726 34.7929 41.726C34.2692 41.726 33.8451 42.151 33.8451 42.6757ZM48.0643 33.4155C47.5584 33.2837 47.0395 33.5865 46.908 34.0946C46.5348 35.5252 44.6783 36.9688 41.6786 38.1608C41.1916 38.3543 40.9535 38.9064 41.1466 39.3943C41.2935 39.7671 41.6513 39.9938 42.0281 39.9938C42.1442 39.9938 42.2626 39.9725 42.3776 39.9262C46.004 38.4849 48.2053 36.634 48.7431 34.5742C48.8747 34.0673 48.5702 33.5485 48.0643 33.4155ZM31.2221 33.8275C31.2221 34.3451 30.8027 34.7654 30.2861 34.7654C29.7625 34.7654 29.3384 35.1904 29.3384 35.7151C29.3384 36.2399 29.7625 36.6649 30.2861 36.6649C31.8476 36.6649 33.1177 35.3922 33.1177 33.8275C33.1177 33.3027 32.6935 32.8777 32.1699 32.8777C31.6462 32.8777 31.2221 33.3039 31.2221 33.8275ZM28.5138 27.762H28.7614C29.285 27.762 29.7092 27.337 29.7092 26.8123C29.7092 26.2875 29.285 25.8625 28.7614 25.8625H28.5138C27.9901 25.8625 27.566 26.2875 27.566 26.8123C27.566 27.337 27.9913 27.762 28.5138 27.762ZM38.3044 38.6511C39.1729 39.8585 39.6325 41.282 39.6325 42.7672C39.6325 46.6624 36.4705 49.8322 32.5822 49.8322H16.3098C12.4227 49.8322 9.25944 46.6636 9.25944 42.7683C9.25944 40.1838 10.6882 37.8189 12.9061 36.5866C12.5957 35.8837 12.4239 35.1049 12.4239 34.2881C12.4239 31.8033 14.0173 29.6841 16.234 28.9029C15.7447 28.193 15.4568 27.3323 15.4568 26.4051C15.4568 23.9772 17.4282 22.0017 19.851 22.0017H29.041C31.4638 22.0017 33.4352 23.9772 33.4352 26.4051C33.4352 28.8329 31.4638 30.8084 29.041 30.8084H19.851C19.261 30.8084 18.6982 30.6909 18.1829 30.4796C18.1616 30.4807 18.139 30.4819 18.1177 30.4819C16.0231 30.4819 14.3194 32.1891 14.3194 34.2881C14.3194 35.0729 14.5576 35.8042 14.9663 36.4108C14.9983 36.45 15.0279 36.4916 15.054 36.5355C15.7459 37.4793 16.8619 38.0943 18.1177 38.0943H30.7743C32.8689 38.0943 34.5725 36.3871 34.5725 34.2881C34.5725 33.1579 34.0702 32.0906 33.1935 31.3605C32.7907 31.0257 32.7362 30.4261 33.0703 30.0225C33.4044 29.6188 34.0027 29.5642 34.4055 29.899C35.7158 30.9912 36.4681 32.5904 36.4681 34.2869C36.4681 37.433 33.9138 39.9927 30.7743 39.9927H18.1177C16.4769 39.9927 14.9959 39.2934 13.9557 38.1762C12.258 39.0559 11.155 40.8273 11.155 42.7672C11.155 45.6153 13.4676 47.9327 16.3098 47.9327H32.5822C35.4243 47.9327 37.737 45.6153 37.737 42.7683C37.737 41.6844 37.4017 40.6456 36.7667 39.7635C36.461 39.3385 36.557 38.7449 36.9811 38.4374C37.4052 38.1299 37.9976 38.2261 38.3044 38.6511ZM17.3524 26.4051C17.3524 27.7858 18.4731 28.9089 19.851 28.9089H29.041C30.4188 28.9089 31.5396 27.7858 31.5396 26.4051C31.5396 25.0243 30.4188 23.9012 29.041 23.9012H19.851C18.4731 23.9012 17.3524 25.0243 17.3524 26.4051Z" fill="#FF9BB3"/>
</svg>
